<svg width="44" height="45" viewBox="0 0 44 45" fill="none" xmlns="http://www.w3.org/2000/svg">
<path fill-rule="evenodd" clip-rule="evenodd" d="M19.4634 44.3813C8.5074 43.1196 0 33.7915 0 22.4694C0 10.287 9.8494 0.411865 22 0.411865C34.1506 0.411865 44 10.287 44 22.4694C44 33.8444 36.7774 32.9092 30.6108 32.1085C27.0512 31.6475 23.8458 31.2328 22.5764 33.2511C21.7074 34.6319 22.6468 36.3524 23.7974 37.506C24.1392 37.8487 24.4103 38.2555 24.5953 38.7032C24.7802 39.1509 24.8754 39.6308 24.8754 40.1154C24.8754 40.6 24.7802 41.0799 24.5953 41.5276C24.4103 41.9753 24.1392 42.3821 23.7974 42.7248C22.6468 43.8784 21.0804 44.5688 19.4634 44.3813ZM19.987 11.4406C19.987 12.3181 19.6393 13.1597 19.0205 13.7802C18.4016 14.4007 17.5622 14.7492 16.687 14.7492C15.8118 14.7492 14.9724 14.4007 14.3535 13.7802C13.7347 13.1597 13.387 12.3181 13.387 11.4406C13.387 10.5631 13.7347 9.72156 14.3535 9.10107C14.9724 8.48058 15.8118 8.13199 16.687 8.13199C17.5622 8.13199 18.4016 8.48058 19.0205 9.10107C19.6393 9.72156 19.987 10.5631 19.987 11.4406ZM9.9 24.6751C10.7752 24.6751 11.6146 24.3265 12.2335 23.7061C12.8523 23.0856 13.2 22.244 13.2 21.3665C13.2 20.489 12.8523 19.6474 12.2335 19.0269C11.6146 18.4065 10.7752 18.0579 9.9 18.0579C9.02479 18.0579 8.18542 18.4065 7.56655 19.0269C6.94768 19.6474 6.6 20.489 6.6 21.3665C6.6 22.244 6.94768 23.0856 7.56655 23.7061C8.18542 24.3265 9.02479 24.6751 9.9 24.6751ZM34.1 24.6751C34.9752 24.6751 35.8146 24.3265 36.4335 23.7061C37.0523 23.0856 37.4 22.244 37.4 21.3665C37.4 20.489 37.0523 19.6474 36.4335 19.0269C35.8146 18.4065 34.9752 18.0579 34.1 18.0579C33.2248 18.0579 32.3854 18.4065 31.7666 19.0269C31.1477 19.6474 30.8 20.489 30.8 21.3665C30.8 22.244 31.1477 23.0856 31.7666 23.7061C32.3854 24.3265 33.2248 24.6751 34.1 24.6751ZM27.5 14.7492C27.9334 14.7492 28.3625 14.6637 28.7629 14.4974C29.1632 14.3311 29.527 14.0874 29.8335 13.7802C30.1399 13.4729 30.383 13.1082 30.5488 12.7068C30.7146 12.3054 30.8 11.8751 30.8 11.4406C30.8 11.0061 30.7146 10.5759 30.5488 10.1745C30.383 9.77304 30.1399 9.4083 29.8335 9.10107C29.527 8.79383 29.1632 8.55012 28.7629 8.38385C28.3625 8.21757 27.9334 8.13199 27.5 8.13199C26.6248 8.13199 25.7854 8.48058 25.1665 9.10107C24.5477 9.72156 24.2 10.5631 24.2 11.4406C24.2 12.3181 24.5477 13.1597 25.1665 13.7802C25.7854 14.4007 26.6248 14.7492 27.5 14.7492Z" fill="black"/>
</svg>
