<svg width="41" height="41" viewBox="0 0 41 41" fill="none" xmlns="http://www.w3.org/2000/svg">
<path d="M7.85547 20.4119C7.85547 14.4321 13.0815 9.20782 20.8555 6.41187V34.4119C16.9012 32.9937 13.6178 30.9531 11.3356 28.4954C9.05345 26.0376 7.85313 23.2496 7.85547 20.4119Z" fill="#D9D9D9"/>
<path d="M11.8555 20.4152V20.4119C11.8555 17.9911 13.4286 15.1893 16.8555 12.8424V27.9733C15.8434 27.2796 14.9777 26.5391 14.2668 25.7736C12.5393 23.9132 11.8541 22.0622 11.8555 20.4152Z" stroke="black" stroke-opacity="0.3" stroke-width="8"/>
<path d="M20.8555 34.4119V6.41187C28.6295 9.20782 33.8555 14.428 33.8555 20.4119C33.8555 26.3917 28.6295 31.6159 20.8555 34.4119Z" fill="#D9D9D9"/>
<path d="M29.8555 20.4119C29.8555 22.8326 28.2823 25.6345 24.8555 27.9813V12.8417C28.2826 15.1878 29.8555 17.9886 29.8555 20.4119Z" stroke="black" stroke-opacity="0.6" stroke-width="8"/>
<path d="M1.85547 20.4119C1.85547 17.9168 2.34692 15.4461 3.30176 13.1409C4.2566 10.8357 5.65613 8.74115 7.42044 6.97684C9.18475 5.21252 11.2793 3.81299 13.5845 2.85815C15.8897 1.90332 18.3604 1.41187 20.8555 1.41187C23.3506 1.41187 25.8213 1.90332 28.1265 2.85815C30.4316 3.81299 32.5262 5.21252 34.2905 6.97684C36.0548 8.74115 37.4543 10.8357 38.4092 13.1409C39.364 15.4461 39.8555 17.9168 39.8555 20.4119C39.8555 25.451 37.8537 30.2837 34.2905 33.8469C30.7273 37.4101 25.8946 39.4119 20.8555 39.4119C15.8164 39.4119 10.9836 37.4101 7.42044 33.8469C3.85725 30.2837 1.85547 25.451 1.85547 20.4119Z" stroke="black" stroke-width="2"/>
</svg>
