<svg width="46" height="46" viewBox="0 0 46 46" fill="none" xmlns="http://www.w3.org/2000/svg">
<path fill-rule="evenodd" clip-rule="evenodd" d="M23.3555 0.411865L28.3066 4.43652L34.6055 3.42578L36.8796 9.3877L42.8416 11.6619L41.8308 17.9607L45.8555 22.9119L41.8308 27.863L42.8416 34.1619L36.8796 36.436L34.6055 42.3979L28.3066 41.3872L23.3555 45.4119L18.4043 41.3872L12.1055 42.3979L9.8313 36.436L3.86938 34.1619L4.88013 27.863L0.855469 22.9119L4.88013 17.9607L3.86938 11.6619L9.8313 9.3877L12.1055 3.42578L18.4043 4.43652L23.3555 0.411865ZM15.8042 21.0515H19.4041C19.6934 21.0515 19.9314 21.2896 19.9314 21.5825V28.6211C19.9314 28.9104 19.6934 29.1521 19.4041 29.1521H15.8042C15.5149 29.1521 15.2732 28.9141 15.2732 28.6211V21.5825C15.2769 21.2896 15.5149 21.0515 15.8042 21.0515ZM23.5679 15.7744C23.8462 14.3608 26.1606 15.6646 26.3145 17.9424C26.3621 18.6382 26.2888 19.4512 26.1167 20.3557H29.4236C30.8005 20.4106 31.998 21.3958 31.1521 23.0144C31.3462 23.7175 31.3755 24.5452 30.8481 24.8711C30.9141 25.9844 30.6064 26.6728 30.0315 27.2185C29.9949 27.7751 29.874 28.2695 29.6067 28.6504C29.1636 29.2766 28.801 29.1265 28.1016 29.1265H22.5168C21.6306 29.1265 21.1509 28.8811 20.5723 28.156V21.9341C22.2385 21.4836 23.1211 19.2058 23.5679 17.7117V15.7744ZM23.3555 9.20825C30.925 9.20825 37.0591 15.3459 37.0591 22.9119C37.0591 30.4814 30.9214 36.6155 23.3555 36.6155C15.7859 36.6155 9.65186 30.4778 9.65186 22.9119C9.65186 15.3423 15.7859 9.20825 23.3555 9.20825Z" fill="black"/>
</svg>
