<svg width="48" height="47" viewBox="0 0 48 47" fill="none" xmlns="http://www.w3.org/2000/svg">
<path d="M24.6328 18.5766C24.6294 18.474 24.6462 18.3717 24.6824 18.2758C24.7185 18.1799 24.7732 18.0921 24.8434 18.0175C24.9136 17.943 24.9979 17.8831 25.0914 17.8412C25.185 17.7994 25.286 17.7764 25.3886 17.7736C30.3304 17.6412 34.3391 16.5585 38.0806 14.3085C37.3753 12.795 36.1901 11.5381 34.6498 10.6959C32.6062 9.57844 30.1506 9.27989 27.5497 9.83184C25.2279 10.3245 23.5832 11.4929 21.9923 12.6234C19.9851 14.0495 18.0889 15.3965 14.8929 15.2955C14.5383 15.2854 14.2305 15.4469 14.0655 15.7305C13.8784 16.0562 13.9104 16.432 14.165 16.8513C14.7607 17.833 17.0953 19.9195 19.9716 21.7103C24.5921 24.588 27.8799 25.0944 29.8248 25.0126C32.3369 24.9059 34.7127 23.8621 36.4117 22.163C36.7325 21.8433 37.0287 21.4998 37.2979 21.1354C38.516 19.4791 38.986 17.5564 38.6037 15.8254C34.713 18.1019 30.5439 19.2013 25.4404 19.3395C25.3376 19.3423 25.2351 19.3247 25.1388 19.2879C25.0425 19.251 24.9544 19.1956 24.8793 19.1247C24.8043 19.0538 24.7439 18.9689 24.7016 18.8749C24.6593 18.7809 24.6359 18.6795 24.6328 18.5766ZM40.1091 12.9596C39.4394 13.4497 38.765 13.8987 38.0819 14.3092C38.2783 14.7305 38.4364 15.1683 38.5543 15.6175C38.5725 15.686 38.5889 15.7555 38.604 15.825C39.4423 15.3332 40.2547 14.7985 41.0378 14.2233C41.1229 14.1638 41.1951 14.0878 41.2503 13.9999C41.3054 13.9119 41.3424 13.8137 41.359 13.7111C41.3756 13.6084 41.3715 13.5033 41.347 13.402C41.3225 13.3007 41.2781 13.2052 41.2163 13.121C41.1545 13.0369 41.0766 12.9658 40.9871 12.912C40.8977 12.8582 40.7985 12.8227 40.6954 12.8076C40.5923 12.7926 40.4874 12.7982 40.3868 12.8242C40.2862 12.8503 40.1919 12.8962 40.1094 12.9592L40.1091 12.9596Z" fill="black"/>
<path fill-rule="evenodd" clip-rule="evenodd" d="M0 25.2203H9.6709V42.5979H0V25.2203ZM11.6183 41.1387V26.6127H18.0877C20.8296 27.1084 23.5716 28.6109 26.3136 30.3534H31.3379C33.6125 30.491 34.8043 32.8196 32.592 34.3497C30.8316 35.6555 28.5064 35.5808 26.1227 35.3645C24.4791 35.2819 24.409 37.5121 26.1227 37.52C26.7186 37.5672 27.3652 37.4256 27.9299 37.4256C30.9056 37.4216 33.3515 36.8474 34.8511 34.4755L35.6028 32.7016L43.077 28.961C46.816 27.718 49.4723 31.6671 46.7186 34.4165C41.3048 38.3932 35.7547 41.6657 30.076 44.3089C25.9513 46.842 21.8267 46.7555 17.706 44.3089L11.6183 41.1387Z" fill="black"/>
</svg>
